<?xml version="1.0" encoding="UTF-8" standalone="no"?>
<svg width="22px" height="22px" viewBox="0 0 22 22" version="1.1" xmlns="http://www.w3.org/2000/svg" xmlns:xlink="http://www.w3.org/1999/xlink">
    <!-- Generator: Sketch 49 (51002) - http://www.bohemiancoding.com/sketch -->
    <title>Artboard 2</title>
    <desc>Created with Sketch.</desc>
    <defs></defs>
    <g id="Artboard-2" stroke="none" stroke-width="1" fill="none" fill-rule="evenodd">
        <path d="M11,22 C4.92486775,22 0,17.0751322 0,11 C0,4.92486775 4.92486775,0 11,0 C17.0751322,0 22,4.92486775 22,11 C22,17.0751322 17.0751322,22 11,22 Z M14.398438,6.398438 L14.398438,4 L12,4 C9.699219,4 8.898438,5.101563 8.898438,7.101563 L8.898438,8.601563 L7.699219,8.601563 L7.699219,11 L8.898438,11 L8.898438,18 L12.101563,18 L12.101563,11 L14,11 L14.101563,8.699219 L12,8.699219 L12,7.398438 C12,6.699219 12.101563,6.398438 13,6.398438 L14.398438,6.398438 Z" id="Combined-Shape" fill="#D8D8D8"></path>
    </g>
</svg>