<?xml version="1.0" encoding="UTF-8"?>
<svg width="33px" height="21px" viewBox="0 0 33 21" version="1.1" xmlns="http://www.w3.org/2000/svg" xmlns:xlink="http://www.w3.org/1999/xlink">
    <!-- Generator: Sketch 51.2 (57519) - http://www.bohemiancoding.com/sketch -->
    <title>Group 25</title>
    <desc>Created with Sketch.</desc>
    <defs></defs>
    <g id="Page-1" stroke="none" stroke-width="1" fill="none" fill-rule="evenodd">
        <g id="Artboard" transform="translate(-282.000000, -21.000000)" fill="#F11D7E">
            <g id="Group-3" transform="translate(168.000000, 21.000000)">
                <g id="Group" transform="translate(13.000000, 0.000000)">
                    <g id="Group-25" transform="translate(101.000000, 0.000000)">
                        <path d="M16.2644741,1.03856667 C15.729363,1.69604815 14.2464,3.73149259 14.2464,6.09827037 C14.2464,8.46945556 15.7285852,10.5015296 16.2639556,11.1579741 C16.7993259,10.5004926 18.2820296,8.46530741 18.2820296,6.09827037 C18.2820296,3.72682593 16.7998444,1.69501111 16.2644741,1.03856667 Z M16.2642148,11.9373074 L16.0746963,11.7337889 C15.9787704,11.630863 13.7278815,9.17956667 13.7278815,6.09827037 C13.7278815,3.01697407 15.9787704,0.565677778 16.0746963,0.462751852 L16.2642148,0.259233333 L16.4537333,0.462751852 C16.5499185,0.565677778 18.8005481,3.01697407 18.8005481,6.09827037 C18.8005481,9.17956667 16.5499185,11.630863 16.4537333,11.7337889 L16.2642148,11.9373074 Z" id="Fill-1"></path>
                        <path d="M16.2646037,11.8980815 C16.0979,11.8812296 12.1685667,11.4526741 11.0807148,8.51267407 C10.6166407,7.25837778 10.7219,6.30793333 10.8232704,5.38911852 C10.8981963,4.71141481 10.9757148,4.0108963 10.8326037,3.15793333 L10.7688259,2.77682222 L11.1457889,2.86211852 C12.7970111,3.23674815 13.6199,4.34663704 13.8970481,4.80656296 C14.187937,5.2893037 14.3157519,5.7468963 14.2392704,6.03078519 L13.7386407,5.89622963 C13.758863,5.82078519 13.7150481,5.50915556 13.452937,5.07437778 C13.2312704,4.70674815 12.6111222,3.86467407 11.3980481,3.46904444 C11.4750481,4.21285926 11.4060852,4.83845185 11.3386778,5.4458963 C11.2393815,6.34474815 11.1455296,7.19356296 11.5670852,8.33300741 C12.5419,10.9676 16.2791222,11.3782667 16.3167148,11.3821556 L16.2646037,11.8980815 Z" id="Fill-4"></path>
                        <path d="M16.2378741,20.9103741 C16.094763,20.9103741 15.9786148,20.7944852 15.9786148,20.6511148 L15.9786148,11.4059296 L16.2116889,11.3820778 C16.2492815,11.3781889 19.9865037,10.9675222 20.9615778,8.33292963 C21.3828741,7.19374444 21.2890222,6.34467037 21.1897259,5.44633704 C21.1225778,4.83863333 21.0533556,4.2133 21.1303556,3.46974444 C19.9349111,3.86355926 19.3137259,4.70978148 19.0910222,5.07948519 C18.8156889,5.5363 18.7698,5.86244815 18.7910593,5.9410037 C18.8281333,6.07918889 18.7464667,6.22152222 18.6082815,6.25885556 C18.469837,6.29592963 18.3280222,6.21426296 18.2901704,6.07607778 C18.2129111,5.78985556 18.3498,5.30555926 18.6469111,4.81192963 C18.9258741,4.34889259 19.750837,3.2320037 21.3828741,2.8623 L21.759837,2.7770037 L21.6958,3.15785556 C21.5526889,4.01081852 21.6302074,4.7115963 21.7051333,5.3893 C21.8065037,6.30837407 21.911763,7.25855926 21.4476889,8.51285556 C20.4985407,11.0782259 17.3856148,11.7313 16.4971333,11.8671519 L16.4971333,20.6511148 C16.4971333,20.7944852 16.3809852,20.9103741 16.2378741,20.9103741" id="Fill-6"></path>
                        <path d="M16.0131741,20.5216667 C16.6714333,19.4304444 17.5161,18.5245926 18.460063,17.7172593 C19.4003963,16.9117407 20.4472852,16.2304074 21.5615815,15.6965926 C21.8335444,15.5495926 22.1267667,15.4477037 22.408063,15.3217037 L22.835063,15.1433333 C22.9786926,15.0875926 23.1277667,15.0468889 23.2739889,14.9978889 L24.1541741,14.7181481 L25.0545815,14.5174815 L25.5049148,14.4220741 C25.6555444,14.3938148 25.8092852,14.3821481 25.9609519,14.3616667 L26.8725074,14.250963 C27.0233963,14.2273704 27.1761,14.2203704 27.3295815,14.2206296 L27.7876926,14.2115556 C28.0928407,14.2045556 28.3972111,14.1991111 28.7008037,14.1991111 C28.0982852,14.3015185 27.4955074,14.3593333 26.902063,14.4718519 L26.0164333,14.659037 C25.8696926,14.6922222 25.721137,14.7163333 25.5762111,14.7567778 L25.1437667,14.8853704 L24.279137,15.1347778 L23.4373222,15.447963 C23.2978407,15.5016296 23.1552481,15.5472593 23.0183593,15.6074074 L22.611063,15.7940741 C22.3416926,15.9229259 22.0603963,16.0268889 21.801137,16.1751852 C20.7337667,16.7118519 19.7563593,17.4058889 18.8435074,18.1657778 C17.9446556,18.9344815 17.1067296,19.8188148 16.4624704,20.7804074 L16.0131741,20.5216667 Z" id="Fill-8"></path>
                        <path d="M22.2644074,15.7325259 C23.7066667,16.5442667 27.6811111,18.1553037 31.6674815,14.2415259 C29.6766296,12.963637 27.7998519,12.5228963 26.083037,12.9314889 C23.9576296,13.437563 22.6657407,15.1302667 22.2644074,15.7325259 M26.0884815,17.2844519 C24.0592593,17.2844519 22.4554815,16.4633778 21.7676667,16.0418222 L21.5558519,15.9121926 L21.6764074,15.6949333 C21.7352593,15.5894148 23.1458889,13.1010444 25.957037,12.4285259 C27.8965556,11.9652296 30.0040741,12.4878963 32.2194444,13.9843407 L32.4758519,14.1575259 L32.2609259,14.3794519 C30.0979259,16.6153037 27.9196296,17.2844519 26.0884815,17.2844519" id="Fill-10"></path>
                        <path d="M16.0131741,20.7804074 C15.3689148,19.8188148 14.5309889,18.9344815 13.632137,18.1657778 C12.7192852,17.4058889 11.7418778,16.7118519 10.6745074,16.1751852 C10.4152481,16.0268889 10.1339519,15.9229259 9.86484074,15.7940741 L9.45728519,15.6074074 C9.32065556,15.5472593 9.17806296,15.5016296 9.03858148,15.447963 L8.19650741,15.1347778 L7.33213704,14.8853704 L6.89943333,14.7567778 C6.75450741,14.7163333 6.60595185,14.6922222 6.45921111,14.659037 L5.57358148,14.4718519 C4.98013704,14.3593333 4.37735926,14.3015185 3.77484074,14.1991111 C4.07843333,14.1991111 4.3828037,14.2045556 4.68795185,14.2115556 L5.14632222,14.2206296 C5.29954444,14.2206296 5.45250741,14.2273704 5.6033963,14.250963 L6.51469259,14.3616667 C6.66661852,14.3824074 6.82035926,14.3938148 6.97098889,14.4220741 L7.42106296,14.5174815 L8.32147037,14.7181481 L9.20191481,14.9978889 C9.34787778,15.0468889 9.49721111,15.0875926 9.64084074,15.1433333 L10.0675815,15.3217037 C10.349137,15.447963 10.6423593,15.5495926 10.9143222,15.6965926 C12.0283593,16.2304074 13.0752481,16.9117407 14.0155815,17.7172593 C14.9598037,18.5245926 15.8042111,19.4304444 16.4624704,20.5216667 L16.0131741,20.7804074 Z" id="Fill-12"></path>
                        <path d="M0.808292593,14.2415259 C4.79466296,18.1550444 8.76936667,16.5445259 10.2113667,15.7322667 C9.81003333,15.1302667 8.51814444,13.437563 6.3929963,12.9314889 C4.67618148,12.5228963 2.79914444,12.963637 0.808292593,14.2415259 M6.38729259,17.2844519 C4.55588519,17.2844519 2.37810741,16.615563 0.214848148,14.3794519 L-7.77777778e-05,14.1575259 L0.25607037,13.9843407 C2.4717,12.487637 4.57844074,11.9647111 6.51873704,12.4285259 C9.32988519,13.1010444 10.7407741,15.5894148 10.7993667,15.6949333 L10.9199222,15.9121926 L10.7081074,16.0418222 C10.0202926,16.4631185 8.41625556,17.2844519 6.38729259,17.2844519" id="Fill-14"></path>
                        <path d="M16.4927,20.6989741 L15.9829963,20.6033074 C17.2720333,13.7412333 24.4843667,8.2216037 26.4098852,7.27141852 L26.6393296,7.73627037 C24.7651444,8.66130741 17.7454407,14.0305667 16.4927,20.6989741" id="Fill-17"></path>
                        <path d="M27.5475667,5.58698519 C27.2732704,5.58698519 27.0140111,5.68991111 26.813863,5.87891111 C26.605937,6.07517037 26.4866778,6.34065185 26.4786407,6.62661481 C26.4617889,7.21642963 26.9276778,7.71031852 27.5180111,7.72742963 C27.5283815,7.72794815 27.5387519,7.72794815 27.548863,7.72794815 C28.124937,7.72794815 28.6017148,7.26776296 28.6185667,6.68831852 C28.6354185,6.0985037 28.1692704,5.60435556 27.5791963,5.5875037 C27.5685667,5.58698519 27.5581963,5.58698519 27.5475667,5.58698519 M27.5491222,8.24646667 C27.5335667,8.24646667 27.5185296,8.24620741 27.5029741,8.24594815 C26.6271963,8.22028148 25.9349741,7.48735556 25.9601222,6.61157778 C25.9725667,6.18717037 26.1491222,5.7930963 26.4579,5.50194815 C26.7664185,5.21054074 27.1656778,5.06068889 27.5944926,5.06898519 C28.4700111,5.09465185 29.1622333,5.82757778 29.1370852,6.7030963 L29.1370852,6.70335556 C29.111937,7.56331852 28.4041593,8.24646667 27.5491222,8.24646667" id="Fill-19"></path>
                        <path d="M16.0357296,20.6989741 C14.7832481,14.0303074 7.76328519,8.66104815 5.88884074,7.73627037 L6.11828519,7.27141852 C8.04406296,8.2216037 15.2566556,13.7409741 16.5451741,20.6033074 L16.0357296,20.6989741 Z" id="Fill-21"></path>
                        <path d="M4.98037037,5.58698519 C4.97,5.58698519 4.95937037,5.58698519 4.949,5.5875037 C4.6632963,5.59554074 4.39755556,5.7148 4.20155556,5.92272593 C4.0052963,6.13065185 3.90159259,6.40261481 3.90988889,6.68805926 L3.90988889,6.68831852 C3.927,7.27839259 4.42296296,7.75491111 5.0107037,7.72742963 C5.60077778,7.71031852 6.06692593,7.21642963 6.04981481,6.62635556 C6.03322222,6.04691111 5.55644444,5.58698519 4.98037037,5.58698519 M4.97959259,8.24646667 C4.1242963,8.24646667 3.41651852,7.56331852 3.39162963,6.7030963 L3.39162963,6.70335556 C3.37944444,6.27894815 3.53292593,5.87528148 3.82433333,5.56676296 C4.11574074,5.25798519 4.50981481,5.08142963 4.93396296,5.06898519 C5.81388889,5.04798519 6.54266667,5.73528148 6.56833333,6.61131852 C6.59348148,7.48735556 5.90151852,8.22028148 5.02574074,8.24594815 C5.01044444,8.24620741 4.99488889,8.24646667 4.97959259,8.24646667" id="Fill-23"></path>
                    </g>
                </g>
            </g>
        </g>
    </g>
</svg>