<?xml version="1.0" encoding="UTF-8" standalone="no"?>
<svg width="22px" height="22px" viewBox="0 0 22 22" version="1.1" xmlns="http://www.w3.org/2000/svg" xmlns:xlink="http://www.w3.org/1999/xlink">
    <!-- Generator: Sketch 49 (51002) - http://www.bohemiancoding.com/sketch -->
    <title>Artboard 2</title>
    <desc>Created with Sketch.</desc>
    <defs></defs>
    <g id="Artboard-2" stroke="none" stroke-width="1" fill="none" fill-rule="evenodd">
        <circle id="Combined-Shape" fill="#D8D8D8" cx="11" cy="11" r="11"></circle>
        <path d="M8.33333333,5 C6.49218733,5 5,6.49218733 5,8.33333333 L5,13.6666667 C5,15.5078127 6.49218733,17 8.33333333,17 L13.6666667,17 C15.5078127,17 17,15.5078127 17,13.6666667 L17,8.33333333 C17,6.49218733 15.5078127,5 13.6666667,5 L8.33333333,5 Z M15,6.33333333 C15.3671873,6.33333333 15.6666667,6.63281267 15.6666667,7 C15.6666667,7.36718733 15.3671873,7.66666667 15,7.66666667 C14.6328127,7.66666667 14.3333333,7.36718733 14.3333333,7 C14.3333333,6.63281267 14.6328127,6.33333333 15,6.33333333 Z M11,7.66666667 C12.841146,7.66666667 14.3333333,9.158854 14.3333333,11 C14.3333333,12.841146 12.841146,14.3333333 11,14.3333333 C9.158854,14.3333333 7.66666667,12.841146 7.66666667,11 C7.66666667,9.158854 9.158854,7.66666667 11,7.66666667 Z M11,9 C9.89583333,9 9,9.89583333 9,11 C9,12.1041667 9.89583333,13 11,13 C12.1041667,13 13,12.1041667 13,11 C13,9.89583333 12.1041667,9 11,9 Z" id="Shape" fill="#FFFFFF" fill-rule="nonzero"></path>
        <g id="icons8-instagram_new" transform="translate(5.000000, 5.000000)"></g>
    </g>
</svg>