<?xml version="1.0" encoding="UTF-8" standalone="no"?>
<svg width="22px" height="22px" viewBox="0 0 22 22" version="1.1" xmlns="http://www.w3.org/2000/svg" xmlns:xlink="http://www.w3.org/1999/xlink">
    <!-- Generator: Sketch 49 (51002) - http://www.bohemiancoding.com/sketch -->
    <title>Artboard 2</title>
    <desc>Created with Sketch.</desc>
    <defs></defs>
    <g id="Artboard-2" stroke="none" stroke-width="1" fill="none" fill-rule="evenodd">
        <path d="M11,22 C4.92486775,22 0,17.0751322 0,11 C0,4.92486775 4.92486775,0 11,0 C17.0751322,0 22,4.92486775 22,11 C22,17.0751322 17.0751322,22 11,22 Z M7.71930561,15.4719336 L7.71930561,7.9304857 L5,7.9304857 L5,15.4719336 L7.71930561,15.4719336 Z M6.31512995,7.0537324 C7.19188326,7.0537324 7.71930561,6.52973465 7.71930561,5.82764726 C7.71930561,5.12555987 7.19188326,4.601563 6.40417565,4.601563 C5.52742235,4.601563 5,5.12555987 5,5.82764726 C5,6.52973465 5.52742235,7.0537324 6.31512995,7.0537324 Z M17.2745462,15.4719336 L17.1855014,15.4719336 L17.1855014,11.3518778 C17.1855014,8.98532952 16.1340822,7.9304857 14.8189523,7.9304857 C13.5038223,7.9304857 12.8017349,8.36886235 12.4524031,8.98532952 L12.4524031,7.9304857 L9.73309835,7.9304857 L9.73309835,15.4719336 L12.4524031,15.4719336 C12.4524031,15.4719336 12.4524031,11.5265437 12.4524031,11.3518778 C12.4524031,10.122369 13.3291564,9.94770304 13.5928671,9.94770304 C13.8565787,9.94770304 14.5552415,10.2114138 14.5552415,11.3518778 L14.5552415,15.4719336 L17.2745462,15.4719336 Z" id="Combined-Shape" fill="#D8D8D8"></path>
    </g>
</svg>