<?xml version="1.0" encoding="UTF-8"?>
<svg width="701px" height="285px" viewBox="0 0 701 285" version="1.1" xmlns="http://www.w3.org/2000/svg" xmlns:xlink="http://www.w3.org/1999/xlink">
    <!-- Generator: Sketch 51.2 (57519) - http://www.bohemiancoding.com/sketch -->
    <title>LKMX</title>
    <desc>Created with Sketch.</desc>
    <defs></defs>
    <g id="logo" stroke="none" stroke-width="1" fill="none" fill-rule="evenodd">
        <g id="LKMX" fill="#00D2FF">
            <g id="hexacubono">
                <path d="M123.682737,0.668424435 L246.446855,71.5463211 L246.446855,213.302114 L123.682737,284.180011 L0.918618504,213.302114 L0.918618504,71.5463211 L123.682737,0.668424435 Z M123.682737,12.8130276 L11.4361534,77.6186227 L11.4361534,207.229813 L123.682737,272.035408 L235.92932,207.229813 L235.92932,77.6186227 L123.682737,12.8130276 Z" id="Combined-Shape"></path>
                <path d="M123.682737,45.0145655 L208.04197,93.7193917 L208.04197,191.129044 L123.682737,239.83387 L39.3235033,191.129044 L39.3235033,93.7193917 L123.682737,45.0145655 Z M123.682737,52.1679193 L45.5184893,97.2960686 L45.5184893,187.552367 L123.682737,232.680516 L201.846984,187.552367 L201.846984,97.2960686 L123.682737,52.1679193 Z" id="Combined-Shape"></path>
                <path d="M65.3127993,41.3245206 L182.052674,41.3245206 L240.422612,142.424218 L182.052674,243.523915 L65.3127993,243.523915 L6.94286186,142.424218 L65.3127993,41.3245206 Z M68.8503877,47.4518035 L14.0180387,142.424218 L68.8503877,237.396632 L178.515086,237.396632 L233.347435,142.424218 L178.515086,47.4518035 L68.8503877,47.4518035 Z" id="Combined-Shape"></path>
                <path d="M83.0355246,72.0211813 L164.329949,72.0211813 L204.977161,142.424218 L164.329949,212.827254 L83.0355246,212.827254 L42.3883125,142.424218 L83.0355246,72.0211813 Z M86.3588153,77.7772896 L49.0348938,142.424218 L86.3588153,207.071146 L161.006658,207.071146 L198.33058,142.424218 L161.006658,77.7772896 L86.3588153,77.7772896 Z" id="Combined-Shape"></path>
                <path d="M123.682737,74.8954305 L182.164382,108.659824 L182.164382,176.188611 L123.682737,209.953005 L65.2010914,176.188611 L65.2010914,108.659824 L123.682737,74.8954305 Z M123.682736,82.1571949 L71.4899638,112.290706 L71.4899638,172.557729 L123.682736,202.69124 L175.875509,172.557729 L175.875509,112.290706 L123.682736,82.1571949 Z" id="Combined-Shape"></path>
                <path d="M123.616625,139.470874 L178.879167,107.56503 L181.946775,112.878284 L126.499208,144.890952 L126.499208,205.003582 L120.363991,205.003582 L120.363991,144.677303 L65.2864747,112.878284 L68.3540832,107.56503 L123.616625,139.470874 Z" id="Combined-Shape"></path>
            </g>
            <path d="M402.773606,178.1758 C403.837049,178.1758 404.755463,178.562501 405.528876,179.335914 C406.302289,180.109327 406.68899,181.027741 406.68899,182.091184 L406.68899,187.311696 C406.68899,188.375139 406.302289,189.293553 405.528876,190.066966 C404.755463,190.840379 403.837049,191.22708 402.773606,191.22708 L343.752818,191.22708 C342.689375,191.22708 341.770961,190.840379 340.997548,190.066966 C340.224135,189.293553 339.837434,188.375139 339.837434,187.311696 L339.837434,93.6325104 C339.837434,92.5690675 340.224135,91.6506533 340.997548,90.8772403 C341.770961,90.1038272 342.689375,89.7171265 343.752818,89.7171265 L349.698401,89.7171265 C350.761844,89.7171265 351.680259,90.1038272 352.453672,90.8772403 C353.227085,91.6506533 353.613785,92.5690675 353.613785,93.6325104 L353.613785,178.1758 L402.773606,178.1758 Z M443.232573,138.29689 L492.682422,185.426511 C493.262482,186.006571 493.649182,186.514116 493.842536,186.949161 C494.035889,187.384205 494.132564,187.746737 494.132564,188.036767 C494.132564,188.906857 493.81837,189.65609 493.189972,190.284488 C492.561573,190.912886 491.812341,191.22708 490.942251,191.22708 L481.95137,191.22708 C480.597897,191.22708 479.486132,190.961223 478.616042,190.429502 C477.745953,189.89778 477.117564,189.438573 476.730858,189.051867 L435.691834,149.898028 L435.691834,187.311696 C435.691834,188.375139 435.305133,189.293553 434.53172,190.066966 C433.758307,190.840379 432.839893,191.22708 431.77645,191.22708 L425.830867,191.22708 C424.767424,191.22708 423.849009,190.840379 423.075596,190.066966 C422.302183,189.293553 421.915483,188.375139 421.915483,187.311696 L421.915483,93.6325104 C421.915483,92.5690675 422.302183,91.6506533 423.075596,90.8772403 C423.849009,90.1038272 424.767424,89.7171265 425.830867,89.7171265 L431.77645,89.7171265 C432.839893,89.7171265 433.758307,90.1038272 434.53172,90.8772403 C435.305133,91.6506533 435.691834,92.5690675 435.691834,93.6325104 L435.691834,127.420824 L474.41063,91.8923398 C474.797337,91.5056333 475.425725,91.0464262 476.295815,90.5147047 C477.165905,89.9829832 478.277669,89.7171265 479.631142,89.7171265 L488.041967,89.7171265 C488.912056,89.7171265 489.661289,90.0313208 490.289687,90.6597189 C490.918085,91.288117 491.23228,92.0373497 491.23228,92.9074393 C491.23228,93.1974692 491.135604,93.5600011 490.942251,93.995046 C490.748898,94.4300908 490.362197,94.9376355 489.782137,95.5176953 L443.232573,138.29689 Z M553.878422,151.058141 L583.171295,94.3575815 C583.751355,93.197462 584.548925,92.134035 585.564029,91.1672687 C586.579134,90.2005024 587.908418,89.7171265 589.55192,89.7171265 L595.062461,89.7171265 C596.125904,89.7171265 597.044318,90.1038272 597.817731,90.8772403 C598.591144,91.6506533 598.977845,92.5690675 598.977845,93.6325104 L598.977845,187.311696 C598.977845,188.375139 598.591144,189.293553 597.817731,190.066966 C597.044318,190.840379 596.125904,191.22708 595.062461,191.22708 L589.116878,191.22708 C588.053435,191.22708 587.135021,190.840379 586.361608,190.066966 C585.588195,189.293553 585.201494,188.375139 585.201494,187.311696 L585.201494,118.574956 L562.579276,162.224236 C561.805863,163.674386 560.984123,164.810319 560.114034,165.63207 C559.243944,166.453822 558.083842,166.864691 556.633693,166.864691 L551.123152,166.864691 C549.673003,166.864691 548.512901,166.453822 547.642811,165.63207 C546.772721,164.810319 545.950982,163.674386 545.177569,162.224236 L522.555351,118.574956 L522.555351,187.311696 C522.555351,188.375139 522.16865,189.293553 521.395237,190.066966 C520.621824,190.840379 519.70341,191.22708 518.639967,191.22708 L512.694384,191.22708 C511.630941,191.22708 510.712527,190.840379 509.939114,190.066966 C509.165701,189.293553 508.779,188.375139 508.779,187.311696 L508.779,93.6325104 C508.779,92.5690675 509.165701,91.6506533 509.939114,90.8772403 C510.712527,90.1038272 511.630941,89.7171265 512.694384,89.7171265 L518.204924,89.7171265 C519.848427,89.7171265 521.177711,90.2005024 522.192815,91.1672687 C523.20792,92.134035 524.00549,93.197462 524.58555,94.3575815 L553.878422,151.058141 Z M657.418575,150.478084 L630.155902,187.891753 C629.672519,188.471813 629.04413,189.172708 628.270717,189.994459 C627.497304,190.816211 626.143851,191.22708 624.210319,191.22708 L617.974707,191.22708 C617.104618,191.22708 616.355385,190.912886 615.726987,190.284488 C615.098589,189.65609 614.784395,188.906857 614.784395,188.036767 C614.784395,187.843414 614.808563,187.625895 614.856902,187.384203 C614.90524,187.142512 615.026084,186.828317 615.219437,186.441611 L649.442793,139.457004 L616.669579,94.5025957 C616.37955,93.922536 616.234537,93.3908225 616.234537,92.9074393 C616.234537,92.0373497 616.548731,91.288117 617.177129,90.6597189 C617.805527,90.0313208 618.55476,89.7171265 619.42485,89.7171265 L626.240518,89.7171265 C628.174051,89.7171265 629.575841,90.2005024 630.44593,91.1672687 C631.31602,92.134035 631.944409,92.8590988 632.331115,93.342482 L658.143646,128.725952 L683.37612,93.4874962 C683.762827,93.0041131 684.391216,92.2548804 685.261305,91.2397758 C686.131395,90.2246712 687.533185,89.7171265 689.466718,89.7171265 L695.702329,89.7171265 C696.572419,89.7171265 697.321651,90.0313208 697.950049,90.6597189 C698.578448,91.288117 698.892642,92.0373497 698.892642,92.9074393 C698.892642,93.3908225 698.747629,93.922536 698.457599,94.5025957 L666.119428,139.747032 L700.19777,186.441611 C700.391123,186.828317 700.511967,187.142512 700.560305,187.384203 C700.608644,187.625895 700.632812,187.843414 700.632812,188.036767 C700.632812,188.906857 700.318618,189.65609 699.69022,190.284488 C699.061822,190.912886 698.312589,191.22708 697.4425,191.22708 L690.626831,191.22708 C688.693299,191.22708 687.339846,190.816211 686.566433,189.994459 C685.79302,189.172708 685.164632,188.471813 684.681248,187.891753 L657.418575,150.478084 Z"></path>
        </g>
    </g>
</svg>