<?xml version="1.0" encoding="UTF-8" standalone="no"?>
<svg width="22px" height="22px" viewBox="0 0 22 22" version="1.1" xmlns="http://www.w3.org/2000/svg" xmlns:xlink="http://www.w3.org/1999/xlink">
    <!-- Generator: Sketch 49 (51002) - http://www.bohemiancoding.com/sketch -->
    <title>Artboard 2</title>
    <desc>Created with Sketch.</desc>
    <defs></defs>
    <g id="Artboard-2" stroke="none" stroke-width="1" fill="none" fill-rule="evenodd">
        <path d="M11,22 C4.92486775,22 0,17.0751322 0,11 C0,4.92486775 4.92486775,0 11,0 C17.0751322,0 22,4.92486775 22,11 C22,17.0751322 17.0751322,22 11,22 Z M11.2479617,4.91304348 C7.9240487,4.91304348 5.7826087,7.26932087 5.7826087,9.54279913 C5.7826087,11.76106 7.01044174,12.2817461 7.26783304,12.4308765 C7.52478957,12.5813113 7.70721478,12.4755774 7.76460609,12.2712296 L7.91915739,11.6513248 C7.91915739,11.6513248 7.99084913,11.4867865 7.84867522,11.3150474 C7.67345783,11.103743 7.29500696,10.7188861 7.29500696,9.76019043 C7.29500696,8.05062522 8.64475522,6.18851913 11.0917122,6.18851913 C13.4934513,6.18851913 14.3160665,7.75252696 14.3160665,9.04687478 C14.3160665,10.65644 13.5449457,13.06267 11.9171196,13.06267 C10.90625,13.06267 10.6153191,12.2827243 10.6153191,11.9009852 C10.6087974,11.7718548 10.6383765,11.6417322 10.6509852,11.579993 C10.6635939,11.5186887 11.074633,10.2097283 11.2055026,9.74320652 C11.4994157,8.69755435 11.2479891,7.82744565 10.2866848,7.82744565 C8.93146739,7.82744565 8.44360043,9.73499304 9.03838304,10.954993 L8.07116174,14.9147417 C8.07116174,14.9147417 7.93760174,15.5630435 7.91151478,15.9456522 C7.87151478,16.5330435 7.955,17.4018748 7.98369565,17.6610052 C8.00456522,17.8488317 8.00504087,17.9387161 8.09069304,17.9556726 C8.17634522,17.9721943 8.32188174,17.8272757 8.43970783,17.6533626 C8.58753391,17.4342322 9.09048913,16.7243274 9.29483696,16.2725883 C9.47701087,15.8695448 9.50950391,15.8591983 9.69819957,15.14572 C9.88689522,14.431807 10.1414743,13.4286687 10.1414743,13.4286687 C10.1414743,13.4286687 10.6721604,14.3576765 12.1056387,14.3576765 C14.1443343,14.3576765 16.2173913,12.5825474 16.2173913,9.26341696 C16.2173913,6.57298217 13.8866578,4.91304348 11.2479617,4.91304348 Z" id="Combined-Shape" fill="#D8D8D8"></path>
    </g>
</svg>