<?xml version="1.0" encoding="UTF-8"?>
<svg width="235px" height="89px" viewBox="0 0 235 89" version="1.1" xmlns="http://www.w3.org/2000/svg" xmlns:xlink="http://www.w3.org/1999/xlink">
    <!-- Generator: Sketch 51.2 (57519) - http://www.bohemiancoding.com/sketch -->
    <title>Tijuana</title>
    <desc>Created with Sketch.</desc>
    <defs>
        <linearGradient x1="50%" y1="15.2654208%" x2="50%" y2="100%" id="linearGradient-1">
            <stop stop-color="#F11D7E" offset="0%"></stop>
            <stop stop-color="#B249A5" offset="53.4478866%"></stop>
            <stop stop-color="#736BC6" offset="100%"></stop>
        </linearGradient>
    </defs>
    <g id="Page-1" stroke="none" stroke-width="1" fill="none" fill-rule="evenodd">
        <g id="Artboard" transform="translate(-181.000000, -71.000000)" fill="url(#linearGradient-1)" fill-rule="nonzero">
            <g id="Group-3" transform="translate(168.000000, 21.000000)">
                <g id="Group" transform="translate(13.000000, 0.000000)">
                    <g id="Tijuana" transform="translate(0.000000, 50.000000)">
                        <path d="M32.241837,60.1362246 C32.241837,61.3126003 32.8998552,62.0185009 33.7931214,62.0185009 L36.7081681,62.0185009 L36.5672447,62.6296296 L14.8462574,62.6296296 L14.9875566,62.0185009 L18.6545703,62.0185009 C19.7827088,62.0185009 20.9112231,60.7477293 21.24042,59.2422843 L30.4519224,19.4312927 L29.8874774,19.4312927 C28.0092509,19.4312927 25.4617323,19.423019 23.2223662,19.4143692 C17.4554065,19.4143692 13.4193614,20.2932663 11.0766515,21.0619721 C8.74220906,21.8265411 6.51674735,22.9886259 4.74787733,24.6772215 C3.86400602,25.5170063 3.10114089,26.4805212 2.48408447,27.5324147 C1.8719134,28.5854365 1.3987867,29.7268368 1.06883814,30.8994518 C0.438253077,33.2356557 0.473577866,35.8181916 1.49160822,38.0069725 C1.99404697,39.09685 2.75766369,40.0581084 3.71631833,40.7715307 C4.67497298,41.4868333 5.80348725,41.9742319 6.97972756,42.1701692 C9.35325275,42.5620437 11.879351,41.8640407 13.8113163,40.4010927 C14.7838754,39.6718751 15.6110015,38.7561222 16.2893126,37.7369476 C16.6252739,37.2247278 16.9270378,36.6873106 17.1987381,36.1318416 C17.4674319,35.5741162 17.6985462,34.9972107 17.9217688,34.4101511 C17.5155338,36.8772306 16.1953637,39.2754876 14.1371311,40.8286947 C12.1168538,42.4029622 9.45584495,43.1953611 6.87826274,42.8117603 C6.23677961,42.7169883 5.59943022,42.5353421 5.00529734,42.2717106 C4.41078865,42.0140963 3.84220987,41.6891639 3.32135713,41.2976655 C2.2755179,40.5184294 1.44050002,39.4631511 0.898602721,38.2841429 C0.3503169,37.1058867 0.0688459756,35.8208241 0.0121008358,34.5376419 C-0.0461474864,33.2529554 0.10717713,31.9648841 0.444265807,30.7279596 C0.791500967,29.4966764 1.28416903,28.312779 1.92790694,27.205978 C2.57540281,26.1036898 3.37847807,25.0909086 4.30594167,24.2116354 C6.16312366,22.4421828 8.48779542,21.2650549 10.8786072,20.4576129 C14.1897425,19.3395294 18.204743,18.8194119 23.0115448,18.8194119 C27.2670545,18.8194119 53.69864,18.8254292 53.5678631,18.8363355 C55.2243702,18.8164033 56.8703551,18.7453243 58.4896584,18.4978642 C59.9954715,18.2673276 61.4798642,17.8901202 62.8485119,17.2643244 C64.2152806,16.6426655 65.4554062,15.7517339 66.3937678,14.5960425 C67.3332569,13.4512574 67.9860139,12.0428408 68.2941663,10.5975685 C68.5846564,9.14251809 68.4985992,7.60585849 68.0427591,6.18916816 C67.5899253,4.77210175 66.7552832,3.47575676 65.6177499,2.52277207 C64.4835987,1.56377012 63.0649702,0.965428121 61.5835838,0.757832405 C60.104828,0.547604134 58.5614354,0.686753436 57.164603,1.21213607 C55.7730318,1.73262968 54.5235114,2.68034926 53.8279137,3.98383975 C53.1157809,5.29259535 52.8204056,6.83301574 53.0924816,8.29333126 C53.3480226,9.74687736 54.2089704,11.1169339 55.5092233,11.8311083 C56.7936927,12.5415219 58.4468177,12.6077118 59.816217,11.9924462 C60.4979102,11.6833091 61.1055718,11.1925258 61.5114311,10.5513108 C61.9172903,9.90859141 62.0830162,9.12409021 62.0352902,8.34974314 C62.1555448,9.11619254 62.0420545,9.93566911 61.6602461,10.637809 C61.2836989,11.3414531 60.6651393,11.9089567 59.9481212,12.2658558 C59.2337338,12.6314048 58.4287795,12.8104185 57.6242011,12.8153075 C56.8211258,12.8220769 55.9996366,12.6404307 55.2826185,12.2489322 C54.5633457,11.8649554 53.9406523,11.3023409 53.4787995,10.6325439 C53.0176983,9.96199466 52.6960172,9.19704957 52.5393104,8.40013775 C52.2071071,6.80217725 52.5393104,5.11621421 53.2946597,3.69839564 C54.0601554,2.23770404 55.4397011,1.18543445 56.9368709,0.614546231 C58.4434356,0.0365125059 60.086414,-0.122568994 61.6771569,0.090291831 C63.267524,0.300520102 64.8240695,0.938726498 66.0709594,1.98008979 C67.3234862,3.01430758 68.2438097,4.42535673 68.7454969,5.95975985 C69.2494388,7.49491513 69.3621775,9.15793733 69.0438786,10.7480002 C68.7064141,12.3358065 68.0160776,13.824328 66.9924103,15.0849455 C65.9728767,16.3451869 64.6260252,17.3109582 63.1739509,17.9739859 C61.7184944,18.6422786 60.1657069,19.0360335 58.6091614,19.2771003 C57.0496096,19.5162866 55.4784081,19.6057935 53.9169772,19.6212127 L49.2582388,19.6163237 L41.5085814,19.5982719 L32.3827604,59.1482645 C32.2888115,59.5247198 32.241837,59.8067792 32.241837,60.1362246 Z M43.8685296,56.8656887 L48.0615116,40.7260644 C48.1096625,40.4496252 48.1578134,40.1728175 48.1578134,39.9424515 C48.1578134,38.6973695 47.4347792,37.6369488 45.989096,37.6369488 L44.7841675,37.6369488 L44.7841675,37.0833333 L58.4224335,37.0833333 C58.9524788,37.0833333 59.3862223,37.1294065 59.3862223,37.5905071 C59.3862223,37.683022 59.3380714,37.8212416 59.3380714,37.913388 L54.5672784,56.6349541 C54.4705914,57.0039083 54.4224404,57.3724938 54.4224404,57.741448 C54.4224404,58.8483104 54.952871,59.7244383 56.0129616,59.7244383 C57.2178902,59.7244383 58.9524788,58.3411367 59.6273621,57.6032284 L60.1574074,57.9721825 C58.6635733,59.7244383 54.2298368,62.6296296 49.217904,62.6296296 C46.2298506,62.6296296 43.6759259,61.2924012 43.6759259,58.3872099 C43.6759259,57.9261094 43.7240768,57.4189356 43.8685296,56.8656887 Z M60.1574074,29.4921954 C60.1574074,29.7842247 60.1122447,30.1253148 60.0670819,30.466405 C59.4792437,33.243019 56.6766248,35.4351852 53.7840417,35.4351852 C51.2075978,35.4351852 49.4444444,33.7301238 49.4444444,31.4406145 C49.4444444,28.2742388 52.6087266,25.5462963 55.9084969,25.5462963 C58.4397781,25.5462963 60.1574074,27.2026862 60.1574074,29.4921954 Z M72.7105466,35.4351852 C70.168463,35.4351852 68.398511,33.7787953 68.3981481,31.4892861 C68.3981481,28.2742388 71.5755712,25.5462963 74.8440681,25.5462963 C77.3857889,25.5462963 79.1111111,27.2026862 79.1111111,29.4921954 C79.1111111,29.7842247 79.0653928,30.1253148 79.0200373,30.466405 C78.4300533,33.243019 75.6158369,35.4351852 72.7105466,35.4351852 Z M78.8023198,43.008922 L78.287037,42.8186736 C79.5520262,40.0944538 81.8475809,37.0833333 87.1883967,37.0833333 C90.608511,37.0833333 93.2321091,38.8039736 93.2321091,41.6718347 C93.2321091,45.017227 89.3435218,57.3474636 89.3435218,59.1636101 C89.3435218,60.1671896 89.7651849,61.0760269 90.608511,61.0760269 C91.9671199,61.0760269 94.3562942,56.7744262 96.3709899,52.3773193 L99.7911042,37.7996301 L109.48898,37.7996301 L105.365969,56.1528716 C105.27235,56.6311668 105.22554,57.108698 105.22554,57.538476 C105.22554,58.7815851 105.647203,59.5941522 106.303289,59.5941522 C107.567904,59.5941522 109.48898,55.7223295 109.910643,54.8620094 L110.425926,55.2447984 C109.114127,57.9690181 106.209295,64.0390122 99.9783436,64.0390122 C96.5114194,64.0390122 95.2936145,61.6494463 95.2936145,58.8770914 C95.2936145,57.108698 95.9961366,54.9105266 96.0897563,54.288972 C92.7632617,61.9833361 89.2495277,64.2777778 85.1740755,64.2777778 C81.1918686,64.2777778 79.6456459,61.4580518 79.6456459,59.0199687 C79.6456459,55.7697006 83.4874233,43.3913289 83.4874233,41.2886637 C83.4874233,40.4283436 82.9253307,39.8545422 81.9880104,39.8545422 C80.348168,39.8545422 79.177173,42.196355 78.8023198,43.008922 Z M131.668606,39.856947 L132.474414,37.3185382 L142.564815,37.3185382 L137.353568,57.1080574 C137.069187,58.142057 136.97452,58.9412274 136.97452,59.4582272 C136.97452,60.2104318 137.353568,60.6335 137.732616,60.6335 C138.775092,60.6335 140.291284,58.4242276 140.811955,56.9667842 L141.238715,57.1550232 C140.480619,59.4112614 137.637949,63.3128062 132.616036,63.3128062 C129.963079,63.3128062 127.215455,61.9970117 127.215455,58.5181593 C127.215455,57.860262 127.215455,57.1550232 127.405168,56.3558528 C125.699642,60.4926025 123.804781,63.4537037 118.593155,63.4537037 C114.803054,63.4537037 111.25,60.9152949 111.25,55.3214775 C111.25,46.0616958 120.061256,37.0833333 126.599739,37.0833333 C129.299651,37.0833333 130.91051,37.8825038 131.668606,39.856947 Z M172.641426,61.506148 C174.284958,61.506148 175.130557,59.1643023 175.835035,58.3513418 L176.351852,58.542739 C175.084017,61.266997 172.782922,64.2777778 167.430091,64.2777778 C164.002282,64.2777778 161.373157,62.5571133 161.373157,59.6895939 C161.373157,56.3437726 165.411238,43.5828147 165.411238,41.7666427 C165.411238,40.7630491 164.988626,39.9982245 164.143027,39.9982245 C162.781737,39.9982245 159.541589,44.7781875 157.475821,48.983959 L154.047637,63.5607069 L144.328318,63.5607069 L148.460229,45.2075896 C148.55406,44.7300517 148.600975,44.2517498 148.600975,43.8215837 C148.600975,42.5792211 148.178363,41.7666427 147.5208,41.7666427 C146.252965,41.7666427 144.328318,45.6381377 143.905331,46.4984699 L143.388889,46.1164396 C144.703264,43.3914175 147.614255,37.3217202 153.859601,37.3217202 C157.334325,37.3217202 158.555245,39.7113197 158.555245,42.4837136 C158.555245,44.2521318 157.851142,46.4507161 157.756936,47.0722794 C161.654272,39.1382743 165.363572,37.0833333 169.448568,37.0833333 C173.439734,37.0833333 174.989436,39.9030989 174.989436,42.3404522 C174.989436,45.5907659 171.139015,57.9693115 171.139015,60.0723883 C171.139015,60.9327205 171.702372,61.506148 172.641426,61.506148 Z M233.629174,35.7381095 C233.307753,37.1648117 232.7907,38.5494083 232.076138,39.8283651 C231.583493,40.7170934 230.996974,41.558453 230.331977,42.331391 C230.994721,43.3757595 231.486991,44.5212567 231.831318,45.7002127 C232.239853,47.1156366 232.468152,48.56076 232.544753,50.0340791 C232.593191,51.5186765 232.386295,52.9871083 232.028826,54.4092992 C231.311261,57.2574404 229.960615,59.9228735 228.19092,62.2555974 C226.420099,64.596592 224.178035,66.5627718 221.689648,68.1157908 C219.855744,69.2612879 217.879528,70.1586629 215.836475,70.8616756 C211.020036,72.6037936 205.535596,73.0323682 200.927931,71.8590513 C191.627364,69.4913648 192.916429,60.6646082 194.01925,56.4040507 C192.328408,60.5428028 190.449069,63.5059825 185.28117,63.5059825 C181.523244,63.5059825 178,60.9657383 178,55.3690807 C178,46.1035991 186.737329,37.1204505 193.220578,37.1204505 C195.898213,37.1204505 197.495181,37.9200804 198.246917,39.8952829 L199.045589,37.3554146 L209.052457,37.3554146 L203.975426,56.808189 C203.880051,57.2611998 203.768905,57.738271 203.637483,58.2442897 C199.961039,72.4646949 211.624578,70.6135535 214.606362,69.9346011 C215.536457,69.6879828 216.456788,69.4056499 217.360222,69.0733166 C218.685334,68.5872228 219.95938,67.970301 221.181607,67.2661605 C223.627188,65.8586313 225.802039,63.9811739 227.559718,61.7653682 C228.443627,60.6604729 229.196864,59.4533212 229.83445,58.1905299 C230.474664,56.9292425 230.982705,55.5995335 231.340925,54.2322302 C231.697267,52.8668066 231.905665,51.4551422 231.871871,50.0573875 C231.811792,48.6543697 231.602643,47.2318029 231.223396,45.8757779 C230.91812,44.7968226 230.490435,43.7513262 229.91443,42.7971839 C228.748902,44.0385464 227.364086,45.0735164 225.805043,45.7866795 C224.46416,46.4024735 222.99561,46.7257841 221.519174,46.7438294 C220.049498,46.7637543 218.50998,46.4126239 217.29376,45.4908127 C216.688091,45.0378018 216.181552,44.440429 215.843985,43.7543337 C215.505291,43.0689904 215.345331,42.2900373 215.403532,41.5223625 C215.452722,40.7505523 215.758748,39.9937798 216.24088,39.3945273 C216.720008,38.7881319 217.359471,38.3366248 218.041365,38.0189533 C219.420173,37.3866178 220.962319,37.2794742 222.421858,37.4663177 C223.155569,37.5572958 223.874637,37.7332369 224.574179,37.9588025 C225.271093,38.1862478 225.957493,38.466325 226.608221,38.8204629 C227.909677,39.5264832 229.05305,40.5306259 229.925694,41.728755 C229.966248,41.7847704 230.004172,41.8430415 230.043223,41.8994329 C230.650394,41.1828863 231.188475,40.4061889 231.643196,39.5873859 C232.336355,38.3516625 232.839514,37.012179 233.153426,35.6294621 C233.476349,34.247873 233.595756,32.8211708 233.542811,31.4016115 C233.49212,29.9813003 233.270204,28.5677561 232.909356,27.1899264 C232.826747,26.8433074 232.724238,26.5019515 232.61497,26.1628512 L232.455386,25.6523212 L232.272145,25.1500618 C232.040842,24.4707336 231.762227,23.8293755 231.416023,23.2094461 C230.731876,21.9695874 229.851722,20.8372482 228.860423,19.8184438 C227.866871,18.7996393 226.76067,17.8891063 225.572613,17.1026344 C223.198376,15.5270589 220.504219,14.432314 217.698916,13.9187764 C214.894365,13.397344 211.98843,13.4657656 209.197772,14.0668978 C206.403734,14.6665262 203.721218,15.7541282 201.242218,17.1906049 C198.750076,18.6105402 196.44906,20.3598011 194.303873,22.2782363 C196.359693,20.2635598 198.620907,18.4387344 201.102911,16.9533851 C203.58529,15.4781863 206.280949,14.3176515 209.120421,13.7105042 C211.952008,13.0890711 214.910511,13.0071156 217.769509,13.528172 C220.629258,14.0405818 223.379363,15.1458531 225.808422,16.744361 C227.02389,17.5421113 228.157126,18.467306 229.177714,19.5067873 C230.1968,20.5462687 231.105491,21.7041719 231.818926,22.9853843 C232.177897,23.6214792 232.47754,24.3045669 232.712222,24.9887825 L232.900719,25.5004404 L233.065185,26.0211209 C233.177457,26.3669881 233.28297,26.7151109 233.368583,27.0692489 C233.739194,28.476778 233.968995,29.9252849 234.023817,31.3846941 C234.079765,32.8429755 233.959983,34.3125351 233.629174,35.7381095 Z M138.311359,75.1561308 C139.117518,75.671383 139.900418,76.3096918 140.378711,77.1982659 C140.855129,78.0543773 141.059576,79.1109274 140.808988,80.0893404 C140.568153,81.0703957 139.951436,81.9000839 139.230057,82.5436773 C138.500801,83.1895356 137.667258,83.6908212 136.799578,84.0939636 C135.931897,84.4997483 135.02858,84.8175816 134.112883,85.0769063 C130.433964,86.0874046 126.61212,86.2969028 122.836417,86.2478311 C119.053211,86.1779984 115.283885,85.7990144 111.547946,85.2377103 C104.073443,84.1026455 96.7238578,82.2737833 89.4931898,80.0968899 C85.8761676,79.015049 82.2910317,77.8059993 78.729154,76.5750561 C75.3765999,75.4471633 71.9842818,74.4393074 68.555576,73.5816861 L68.3496285,74.4502541 C66.5501206,81.7407898 61.8470916,85.6121647 56.9366146,87.3206126 C51.0657998,89.3635027 46.295247,89.03812 44.6577961,88.8795809 C42.7536264,88.7006581 40.8697138,88.2461792 39.1009667,87.4965156 C37.3404726,86.7408124 35.67001,85.6963414 34.3446689,84.263072 C33.6896886,83.5443613 33.1172372,82.7339243 32.724099,81.826099 C32.3227078,80.9254456 32.1107583,79.927404 32.1418942,78.9304948 C32.1647772,77.9332081 32.4382484,76.9529077 32.8906575,76.0711281 C33.3475682,75.1885935 34.0032989,74.4260958 34.7483109,73.7957139 C36.2548407,72.5357052 38.075356,71.7830218 39.9078755,71.26173 C41.7512738,70.7438355 43.6449398,70.4720541 45.5382307,70.327104 C49.3300643,70.0496605 53.1294005,70.2836945 56.8825956,70.7502525 C57.6966319,70.8536804 58.5084174,70.9706974 59.3190775,71.0971513 L61.7334266,60.8868531 L66.4428329,40.6247958 C66.4897244,40.3888744 66.5366159,40.1525756 66.5366159,39.9166543 C66.5366159,38.3580635 65.1756372,37.6971063 64.4718897,37.6971063 L62.8760785,37.6971063 L63.0636444,37.0833333 L77.0962047,37.0833333 L71.6999318,60.2123068 L71.72319,60.2123068 L68.6853716,73.0335936 C72.1305833,73.9029166 75.5364061,74.9224743 78.9009645,76.0613138 C82.4684692,77.3013164 86.0322225,78.5118759 89.6421171,79.6001339 C96.8506524,81.7868416 104.176604,83.6247633 111.617721,84.7707748 C115.337154,85.3377409 119.086973,85.7216322 122.845045,85.7990144 C126.592613,85.8560129 130.385197,85.6521769 133.998467,84.6665919 C134.897659,84.4144392 135.780344,84.1052879 136.62289,83.7130922 C137.465812,83.3242938 138.267094,82.8411269 138.955836,82.2341485 C139.638951,81.627925 140.199773,80.8650498 140.413974,79.992707 C140.638303,79.1218742 140.464241,78.1853608 140.026462,77.3904002 C139.604064,76.5961946 138.874807,75.9877063 138.101285,75.4924602 C137.31951,74.9983466 136.463834,74.6159653 135.587526,74.2996419 C133.829658,73.6685052 131.979882,73.3004679 130.119603,73.0868175 C126.391167,72.6644239 122.605335,72.8727897 118.903158,73.4929797 C115.196855,74.1176994 111.569329,75.1814215 108.058469,76.5652418 C111.478922,74.9639964 115.120328,73.8217597 118.845763,73.1562727 C122.570448,72.494938 126.389666,72.2960092 130.161993,72.7093433 C132.04478,72.9218613 133.92044,73.2898986 135.718072,73.9304722 C136.615388,74.2520802 137.494697,74.642011 138.311359,75.1561308 Z M122.904684,61.0092265 C126.268403,61.0092265 131.052511,45.4034228 131.05289,41.5961853 C131.05289,39.7630153 130.200126,38.1177086 128.874026,38.1177086 C124.752211,38.1177086 120.630396,52.5482396 120.630396,57.4371939 C120.630396,59.975227 121.577826,61.0092265 122.904684,61.0092265 Z M189.555773,61.0597239 C192.891646,61.0597239 197.635991,45.4453236 197.635991,41.6355212 C197.635991,39.8012972 196.790758,38.1550445 195.475409,38.1550445 C191.388551,38.1550445 187.301318,52.5942483 187.301318,57.4856375 C187.301318,60.0251299 188.2408,61.0597239 189.555773,61.0597239 Z M225.594392,45.3216385 C227.124522,44.6253928 228.489437,43.5979416 229.634688,42.3603386 C229.571605,42.2667288 229.509274,42.1723672 229.443187,42.0806373 C228.623112,40.9475462 227.555212,40.0028024 226.328103,39.3313689 C225.099868,38.6712137 223.731575,38.2193307 222.34751,38.0291038 C220.966825,37.8460197 219.523809,37.9501558 218.271917,38.5208367 C217.652355,38.806929 217.083109,39.2088117 216.665562,39.7351313 C216.244635,40.2569397 215.984419,40.8949143 215.938233,41.5625883 C215.823333,42.9129742 216.517618,44.2588487 217.611427,45.0697569 C218.703734,45.9032217 220.124596,46.24157 221.514668,46.2254045 C222.91563,46.2111187 224.31922,45.9069811 225.594392,45.3216385 Z M39.3346739,86.9420061 C43.861391,88.7889871 49.1424983,88.2288154 51.0988114,87.1314981 C55.7403188,84.5280589 57.4648003,78.7980013 57.8973274,77.1110694 L58.0124929,76.6237503 L58.0124929,76.6233728 L59.1847802,71.6660048 C58.3947524,71.5448356 57.6035991,71.4323483 56.8109454,71.3334501 C53.0847598,70.8774613 49.3180601,70.6539966 45.5839968,70.9355923 C43.7207165,71.0820523 41.8623129,71.3462842 40.071433,71.8490798 C38.2903066,72.3537627 36.5421918,73.0849301 35.1373227,74.2618945 C34.441453,74.8499992 33.8412419,75.5505913 33.4255957,76.3531013 C33.0144511,77.153724 32.7646132,78.0475827 32.7443561,78.9482361 C32.6760821,80.7661515 33.546013,82.5153667 34.7858241,83.8523802 C36.0346383,85.2052475 37.623322,86.2440564 39.3346739,86.9420061 Z" id="Combined-Shape"></path>
                    </g>
                </g>
            </g>
        </g>
    </g>
</svg>