<?xml version="1.0" encoding="UTF-8" standalone="no"?>
<svg width="22px" height="22px" viewBox="0 0 22 22" version="1.1" xmlns="http://www.w3.org/2000/svg" xmlns:xlink="http://www.w3.org/1999/xlink">
    <!-- Generator: Sketch 49 (51002) - http://www.bohemiancoding.com/sketch -->
    <title>Artboard 2</title>
    <desc>Created with Sketch.</desc>
    <defs></defs>
    <g id="Artboard-2" stroke="none" stroke-width="1" fill="none" fill-rule="evenodd">
        <path d="M11,22 C4.92486775,22 0,17.0751322 0,11 C0,4.92486775 4.92486775,0 11,0 C17.0751322,0 22,4.92486775 22,11 C22,17.0751322 17.0751322,22 11,22 Z M17.601563,7.800781 C18.101563,7.398438 18.601563,6.898438 19,6.300781 C18.398438,6.601563 17.898438,6.699219 17.300781,6.800781 C17.898438,6.398438 18.398438,5.898438 18.601563,5.199219 C18.101563,5.5 17.5,5.800781 16.800781,5.898438 C16.300781,5.300781 15.5,5 14.699219,5 C13.101563,5 11.800781,6.300781 11.800781,7.898438 C11.800781,8.199219 11.898438,8.398438 11.898438,8.601563 C9.5,8.5 7.398438,7.300781 6,5.601563 C5.699219,6 5.601563,6.5 5.601563,7 C5.601563,8 6.101563,8.800781 6.898438,9.5 C6.398438,9.398438 6,9.300781 5.601563,9.101563 C5.601563,10.5 6.601563,11.601563 7.898438,11.898438 C7.601563,12 7.398438,12 7.101563,12 C7,12 6.800781,11.898438 6.601563,11.898438 C7,13 8,13.898438 9.300781,13.898438 C8.300781,14.601563 7,15.101563 5.699219,15.101563 C5.5,15.101563 5.199219,15.101563 5,15.101563 C6.300781,15.898438 7.800781,16.398438 9.398438,16.398438 C14.699219,16.398438 17.601563,12 17.601563,8.199219 C17.601563,8 17.601563,7.898438 17.601563,7.800781 Z" id="Combined-Shape" fill="#D8D8D8"></path>
    </g>
</svg>