<?xml version="1.0" encoding="UTF-8" standalone="no"?>
<svg width="22px" height="22px" viewBox="0 0 22 22" version="1.1" xmlns="http://www.w3.org/2000/svg" xmlns:xlink="http://www.w3.org/1999/xlink">
    <!-- Generator: Sketch 49 (51002) - http://www.bohemiancoding.com/sketch -->
    <title>Artboard 2</title>
    <desc>Created with Sketch.</desc>
    <defs></defs>
    <g id="Artboard-2" stroke="none" stroke-width="1" fill="none" fill-rule="evenodd">
        <circle id="Combined-Shape" fill="#D8D8D8" cx="11" cy="11" r="11"></circle>
        <path d="M7.12326389,5 L7.94444444,8 L7.94444444,9.8 L8.55555556,9.8 L8.55555556,8 L9.43402778,5 L8.78472222,5 L8.30729167,6.875 L8.25,6.875 L7.81076389,5 L7.12326389,5 Z M10.7135417,6.2 C10.4270833,6.2 10.1955297,6.2867186 10.0260417,6.44375 C9.85655367,6.6007814 9.77777778,6.7976564 9.77777778,7.0625 L9.77777778,8.84375 C9.77777778,9.134375 9.86132828,9.3664064 10.0260417,9.5375 C10.1931427,9.7085936 10.4175347,9.8 10.6944444,9.8 C10.9809028,9.8 11.1981338,9.7226564 11.3628472,9.55625 C11.5251736,9.3875 11.6111111,9.1554686 11.6111111,8.8625 L11.6111111,7.08125 C11.6111111,6.8210936 11.5299482,6.6078128 11.3628472,6.44375 C11.1957468,6.2773436 10.9761288,6.2 10.7135417,6.2 Z M12.2222222,6.2 L12.2222222,9.14375 C12.2222222,9.3523436 12.2604167,9.546875 12.3368056,9.65 C12.4108074,9.753125 12.5134552,9.8 12.6614583,9.8 C12.7808163,9.8 12.9168838,9.7601564 13.0434028,9.6875 C13.1723093,9.6148436 13.2892797,9.509375 13.40625,9.36875 L13.40625,9.8 L14.0555556,9.8 L14.0555556,6.2 L13.4444444,6.2 L13.4444444,8.84375 C13.3847658,8.91875 13.2486982,8.984375 13.1770833,9.03125 C13.1054691,9.0804686 13.0529514,9.10625 13.0052083,9.10625 C12.9455297,9.10625 12.8977866,9.0851564 12.8715278,9.05 C12.8428819,9.0125 12.8333333,8.9445314 12.8333333,8.8625 L12.8333333,6.2 L12.2222222,6.2 Z M10.6944444,6.8 C10.7779949,6.8 10.8734811,6.8117186 10.9236111,6.85625 C10.9761288,6.903125 11,6.9710936 11,7.04375 L11,8.91875 C11,9.0101564 10.9737412,9.0734378 10.9236111,9.125 C10.8734811,9.1789064 10.7803819,9.2 10.6944444,9.2 C10.6108939,9.2 10.5082468,9.1765628 10.4652778,9.125 C10.4199217,9.0734378 10.3888889,9.0101564 10.3888889,8.91875 C10.3888889,8.9140628 10.3888889,8.9046878 10.3888889,8.9 L10.3888889,7.1 C10.3888889,7.0953128 10.3888889,7.0859378 10.3888889,7.08125 L10.3888889,7.04375 C10.3888889,6.9710936 10.4175347,6.903125 10.4652778,6.85625 C10.5130208,6.8117186 10.6180556,6.8 10.6944444,6.8 Z M6.72222222,10.4 C6.04904544,10.4 5.5,10.9390628 5.5,11.6 L5.5,15.8 C5.5,16.4609378 6.04904544,17 6.72222222,17 L15.2777778,17 C15.9509552,17 16.5,16.4609378 16.5,15.8 L16.5,11.6 C16.5,10.9390628 15.9509552,10.4 15.2777778,10.4 L6.72222222,10.4 Z M6.66493056,11 L8.59375,11 C8.63671906,11 8.67013889,11.0328128 8.67013889,11.075 L8.67013889,11.61875 C8.67013889,11.6539064 8.63671906,11.69375 8.59375,11.69375 L8.02083333,11.69375 L8.02083333,15.74375 C8.02083333,15.7789064 7.98025189,15.81875 7.94444444,15.81875 L7.33333333,15.81875 C7.29752589,15.81875 7.25694444,15.7789064 7.25694444,15.74375 L7.25694444,11.69375 L6.66493056,11.69375 C6.62196211,11.69375 6.58854167,11.6539064 6.58854167,11.61875 L6.58854167,11.075 C6.58854167,11.0328128 6.62196211,11 6.66493056,11 Z M11,11 L11.6111111,11 C11.6469186,11 11.6875,11.0328128 11.6875,11.075 L11.6875,12.44375 C11.7424047,12.396875 11.7853731,12.3664064 11.8402778,12.33125 C11.9453125,12.2773436 12.1124135,12.2 12.2222222,12.2 C12.4418403,12.2 12.6208769,12.2820314 12.7378472,12.44375 C12.8548176,12.6007814 12.8333333,12.96875 12.8333333,13.25 L12.8333333,15.2 C12.8333333,15.6828128 12.5039066,15.85625 12.2222222,15.85625 C12.0933163,15.85625 11.9500871,15.8164064 11.8402778,15.7625 C11.7853731,15.7390628 11.7424047,15.6921878 11.6875,15.65 L11.6875,15.725 C11.6875,15.7601564 11.6469186,15.8 11.6111111,15.8 L11,15.8 C10.9641926,15.8 10.9236111,15.7601564 10.9236111,15.725 L10.9236111,11.075 C10.9236111,11.0328128 10.9641926,11 11,11 Z M8.55555556,12.2 L9.16666667,12.2 C9.20247411,12.2 9.24305556,12.2398436 9.24305556,12.275 L9.24305556,14.95625 C9.24305556,15.0734378 9.283637,15.125 9.33854167,15.125 C9.41731756,15.125 9.65364583,14.9726564 9.70138889,14.91875 L9.70138889,12.275 C9.70138889,12.2398436 9.74197033,12.2 9.77777778,12.2 L10.3888889,12.2 C10.4318579,12.2 10.4652778,12.2398436 10.4652778,12.275 L10.4652778,15.725 C10.4652778,15.7601564 10.4318579,15.8 10.3888889,15.8 L9.77777778,15.8 C9.73480933,15.8 9.70138889,15.7601564 9.70138889,15.725 L9.70138889,15.5375 C9.61545139,15.6148436 9.21202272,15.85625 8.99479167,15.85625 C8.82291667,15.85625 8.69878472,15.7882814 8.61284722,15.66875 C8.52690972,15.5609378 8.47916667,15.4109378 8.47916667,15.2 L8.47916667,12.275 C8.47916667,12.2398436 8.51974811,12.2 8.55555556,12.2 Z M14.3229167,12.2 C14.6356338,12.2 14.8457033,12.2960936 15.0104167,12.48125 C15.1751301,12.6617186 15.2777778,12.9195314 15.2777778,13.25 L15.2777778,14 C15.2777778,14.0351564 15.2562936,14.075 15.2204861,14.075 L14.0555556,14.075 L14.0555556,14.7875 C14.0555556,15.3148436 14.6666667,15.3007814 14.6666667,14.825 L14.6666667,14.6 C14.6666667,14.5648436 14.6738283,14.5273436 14.7239583,14.525 L15.2013889,14.50625 C15.2443579,14.50625 15.2777778,14.5460936 15.2777778,14.58125 L15.2777778,14.825 C15.2777778,15.6476564 14.6213106,15.81875 14.2847222,15.81875 C13.9863283,15.81875 13.40625,15.5257814 13.40625,14.80625 L13.40625,13.25 C13.40625,12.3734378 14.0245227,12.2 14.3229167,12.2 Z M14.3802083,12.8 C14.3133681,12.7953128 14.2369792,12.8117186 14.1701389,12.875 C14.1510417,12.9054686 14.1319444,12.9828128 14.1319444,13.1375 L14.1319444,13.4 L14.609375,13.4 L14.609375,13.1375 C14.609375,12.9828128 14.5759552,12.9054686 14.5520833,12.875 C14.5067273,12.8304686 14.4470486,12.8046878 14.3802083,12.8 Z M11.9548611,12.875 C11.8999564,12.8679686 11.8355038,12.865625 11.7829861,12.89375 C11.7519533,12.9054686 11.7185328,12.9382814 11.6875,12.96875 L11.6875,15.0875 C11.7304691,15.1296878 11.7710505,15.14375 11.8020833,15.1625 C11.8378908,15.18125 11.8736982,15.2 11.9166667,15.2 C11.9954426,15.2 12.1267361,15.1929686 12.1267361,14.975 L12.1267361,13.1375 C12.1267361,13.0414064 12.1052519,12.9734378 12.0694444,12.93125 C12.0479602,12.8984378 12.0097658,12.8820314 11.9548611,12.875 Z" id="Shape" fill="#FFFFFF" fill-rule="nonzero"></path>
        <g id="icons8-youtube" transform="translate(5.500000, 5.000000)"></g>
    </g>
</svg>